<svg version="1.1" viewBox="0.0 0.0 712.3228346456693 708.7795275590552" fill="none" stroke="none" stroke-linecap="square" stroke-miterlimit="10" xmlns:xlink="http://www.w3.org/1999/xlink" xmlns="http://www.w3.org/2000/svg"><clipPath id="p.0"><path d="m0 0l712.3228 0l0 708.77954l-712.3228 0l0 -708.77954z" clip-rule="nonzero"/></clipPath><g clip-path="url(#p.0)"><path fill="#000000" fill-opacity="0.0" d="m0 0l712.3228 0l0 708.77954l-712.3228 0z" fill-rule="evenodd"/><path fill="#ffe599" d="m135.55817 514.6914l0 0c-9.100563 -9.100586 -9.100822 -23.855774 -5.79834E-4 -32.956635l415.801 -415.8302c4.370117 -4.3703995 10.297302 -6.8257217 16.477661 -6.8258324c6.180298 -1.0681152E-4 12.107605 2.4550095 16.477844 6.8252525l65.910095 65.9101c9.100525 9.100555 9.10083 23.855743 5.493164E-4 32.95662l-415.80103 415.8302c-9.100235 9.100891 -23.854889 9.101135 -32.95546 6.1035156E-4z" fill-rule="evenodd"/><path fill="#f4cccc" d="m497.84692 147.44556l0 0c-7.732147 -7.732147 -7.732147 -20.268417 0 -28.000565l55.99945 -55.999435l0 0c3.7130737 -3.713108 8.7491455 -5.7991066 14.000244 -5.7991066c5.2511597 0 10.28717 2.0859985 14.000305 5.7991066l70.8656 70.865585c7.7321167 7.732132 7.7321167 20.268417 0 28.00055l-55.99945 55.99945c-7.7321777 7.732132 -20.268433 7.732132 -28.00055 0z" fill-rule="evenodd"/><path fill="#d9d9d9" d="m420.65686 196.63579l75.87402 -75.87401l98.86615 98.866135l-75.87402 75.87401z" fill-rule="evenodd"/><path fill="#f4dccc" d="m228.47607 586.5744l0 0l-133.43307 34.566895l34.566925 -133.43307l0 0z" fill-rule="evenodd"/><path fill="#ffe599" d="m129.5962 487.69678l75.87401 -75.87402l98.86615 98.86615l-75.87402 75.87402z" fill-rule="evenodd"/><path fill="#666666" d="m129.72476 612.16986l0 0l-34.692917 8.960632l8.960632 -34.692932l0 0z" fill-rule="evenodd"/></g></svg>